{"title":"Innocent teen girl takes a huge dick in her tiny asshole[truehdp","uid":7543894,"size":196334332,"categoryP":"porn","categoryS":"movie_clips","magnet":"?xt=urn:btih:79be589588befde34ee4a02d24194cfc18656ec9&amp;dn=Innocent+teen+girl+takes+a+huge+dick+in+her+tiny+asshole%5Btruehdp&amp;tr=udp%3A%2F%2Ftracker.openbittorrent.com%3A80&amp;tr=udp%3A%2F%2Fopen.demonii.com%3A1337&amp;tr=udp%3A%2F%2Ftracker.coppersurfer.tk%3A6969&amp;tr=udp%3A%2F%2Fexodus.desync.com%3A6969","seeders":0,"leechers":0,"uploader":"hdporn","files":1,"time":1345296052,"description":"Format : Flash Video\nFile size : 187 MiB\nDuration : 12mn 21s\nOverall bit rate : 2 119 Kbps\nTagged date : UTC 2012-03-06 15:18:38\nTagging application : flvtool++ (Facebook, Motion project, dweatherford)\ntotalframes : 22213.000\n\nVideo\nFormat : AVC\nFormat/Info : Advanced Video Codec\nFormat profile : &lt;a class=&quot;__cf_email__&quot; href=&quot;/cdn-cgi/l/email-protection&quot; data-cfemail=&quot;da92b3bdb29a96e9f4eb&quot;&gt;[email&amp;#160;protected]&lt;/a&gt;&lt;script data-cfhash='f9e31' type=&quot;text/javascript&quot;&gt;\n/* &lt;![CDATA[ */!function(){try{var t=&quot;currentScript&quot;in document?document.currentScript:function(){for(var t=document.getElementsByTagName(&quot;script&quot;),e=t.length;e--;)if(t[e].getAttribute(&quot;data-cfhash&quot;))return t[e]}();if(t&amp;&amp;t.previousSibling){var e,r,n,i,c=t.previousSibling,a=c.getAttribute(&quot;data-cfemail&quot;);if(a){for(e=&quot;&quot;,r=parseInt(a.substr(0,2),16),n=2;a.length-n;n+=2)i=parseInt(a.substr(n,2),16)^r,e+=String.fromCharCode(i);e=document.createTextNode(e),c.parentNode.replaceChild(e,c)}t.parentNode.removeChild(t);}}catch(u){}}()/* ]]&gt; */&lt;/script&gt;\nFormat settings, CABAC : Yes\nFormat settings, ReFrames : 4 frames\nCodec ID : 7\nDuration : 12mn 21s\nBit rate : 2 048 Kbps\nWidth : 960 pixels\nHeight : 540 pixels\nDisplay aspect ratio : 16:9\nFrame rate mode : Constant\nFrame rate : 29.970 fps\nColor space : YUV\nChroma subsampling : 4:2:0\nBit depth : 8 bits\nScan type : Progressive\nBits/(Pixel*Frame) : 0.132\nStream size : 181 MiB (97%)\n\nAudio\nFormat : AAC\nFormat/Info : Advanced Audio Codec\nFormat profile : LC\nCodec ID : 10\nDuration : 12mn 21s\nBit rate : 59.1 Kbps\nChannel(s) : 2 channels\nChannel positions : Front: L R\nSampling rate : 44.1 KHz\nCompression mode : Lossy\nDelay relative to video : 66ms\nStream size : 5.22 MiB (3%)","torrent":{"xt":"urn:btih:79be589588befde34ee4a02d24194cfc18656ec9","amp;dn":"Innocent+teen+girl+takes+a+huge+dick+in+her+tiny+asshole%5Btruehdp","amp;tr":["udp%3A%2F%2Ftracker.openbittorrent.com%3A80","udp%3A%2F%2Fopen.demonii.com%3A1337","udp%3A%2F%2Ftracker.coppersurfer.tk%3A6969","udp%3A%2F%2Fexodus.desync.com%3A6969"],"infoHash":"79be589588befde34ee4a02d24194cfc18656ec9","infoHashBuffer":{"type":"Buffer","data":[121,190,88,149,136,190,253,227,78,228,160,45,36,25,76,252,24,101,110,201]},"announce":[],"urlList":[]}}